<?xml version="1.0" encoding="UTF-8"?>
<svg width="20px" height="20px" viewBox="0 0 20 20" version="1.1" xmlns="http://www.w3.org/2000/svg" xmlns:xlink="http://www.w3.org/1999/xlink">
    <title>形状</title>
    <g id="1" stroke="none" stroke-width="1" fill="none" fill-rule="evenodd">
        <g id="导航展开" transform="translate(-32.000000, -82.000000)" fill="#F36F4E" fill-rule="nonzero">
            <g id="展开" transform="translate(0.000000, 60.000000)">
                <g id="产品" transform="translate(32.000000, 22.000000)">
                    <path d="M19.7485331,6.16932104 L15.0041911,10.913663 C14.6689019,11.2489522 14.1492037,11.2489522 13.8139145,10.913663 L9.08633697,6.16932104 C8.75104778,5.83403185 8.75104778,5.31433361 9.08633697,4.97904443 L13.830679,0.25146689 C14.1659681,-0.0838222967 14.6856664,-0.0838222967 15.0209556,0.25146689 L19.7485331,4.99580889 C20.0838223,5.31433361 20.0838223,5.85079631 19.7485331,6.16932104 Z M7.54400671,20 L0.838222967,20 C0.368818106,20 0,19.6311819 0,19.161777 L0,12.4559933 C0,11.9865884 0.368818106,11.6177703 0.838222967,11.6177703 L7.54400671,11.6177703 C8.01341157,11.6177703 8.38222967,11.9865884 8.38222967,12.4559933 L8.38222967,19.161777 C8.38222967,19.6311819 8.01341157,20 7.54400671,20 Z M7.54400671,9.94132439 L0.838222967,9.94132439 C0.368818106,9.94132439 0,9.57250629 0,9.10310142 L0,2.39731769 C0,1.92791282 0.368818106,1.55909472 0.838222967,1.55909472 L7.54400671,1.55909472 C8.01341157,1.55909472 8.38222967,1.92791282 8.38222967,2.39731769 L8.38222967,9.10310142 C8.38222967,9.57250629 8.01341157,9.94132439 7.54400671,9.94132439 Z M10.8968986,11.6177703 L17.6026823,11.6177703 C18.0720872,11.6177703 18.4409053,11.9865884 18.4409053,12.4559933 L18.4409053,19.161777 C18.4409053,19.6311819 18.0720872,20 17.6026823,20 L10.8968986,20 C10.4274937,20 10.0586756,19.6311819 10.0586756,19.161777 L10.0586756,12.4559933 C10.0586756,11.9865884 10.4274937,11.6177703 10.8968986,11.6177703 Z" id="形状"></path>
                </g>
            </g>
        </g>
    </g>
</svg>