<?xml version="1.0" encoding="UTF-8"?>
<svg width="7px" height="12px" viewBox="0 0 7 12" version="1.1" xmlns="http://www.w3.org/2000/svg" xmlns:xlink="http://www.w3.org/1999/xlink">
    <title>Vector备份</title>
    <g id="1" stroke="none" stroke-width="1" fill="none" fill-rule="evenodd">
        <g id="导航展开" transform="translate(-167.000000, -86.000000)" fill="#FFFFFF" fill-rule="nonzero">
            <g id="展开" transform="translate(0.000000, 60.000000)">
                <g id="编组-10" transform="translate(32.000000, 22.000000)">
                    <path d="M133.292893,7.29289322 C133.653377,6.93240926 134.220608,6.90467972 134.612899,7.20970461 L134.707107,7.29289322 L138.25,10.835 L141.792893,7.29289322 C142.153377,6.93240926 142.720608,6.90467972 143.112899,7.20970461 L143.207107,7.29289322 C143.567591,7.65337718 143.59532,8.22060824 143.290295,8.61289944 L143.207107,8.70710678 L138.957107,12.9571068 C138.596623,13.3175907 138.029392,13.3453203 137.637101,13.0402954 L137.542893,12.9571068 L133.292893,8.70710678 C132.902369,8.31658249 132.902369,7.68341751 133.292893,7.29289322 Z" id="Vector备份" transform="translate(138.250000, 10.125000) scale(-1, 1) rotate(90.000000) translate(-138.250000, -10.125000) "></path>
                </g>
            </g>
        </g>
    </g>
</svg>